<?xml version="1.0" encoding="UTF-8"?>
<svg width="29px" height="22px" viewBox="0 0 29 22" version="1.1" xmlns="http://www.w3.org/2000/svg" xmlns:xlink="http://www.w3.org/1999/xlink">
    <!-- Generator: Sketch 51.2 (57519) - http://www.bohemiancoding.com/sketch -->
    <title>video_hotspot</title>
    <desc>Created with Sketch.</desc>
    <defs></defs>
    <g id="Page-2" stroke="none" stroke-width="1" fill="none" fill-rule="evenodd">
        <g id="Elements-states-Copy-2" transform="translate(-364.000000, -271.000000)" fill="#FFFFFF" fill-rule="nonzero">
            <g id="video_hotspot" transform="translate(364.000000, 271.000000)">
                <path d="M12.4258891,14.6628642 L18.1568684,11.4356735 C18.3974842,11.3001796 18.4827023,10.9952823 18.3472083,10.7546664 C18.3023544,10.6750129 18.2365219,10.6091804 18.1568684,10.5643265 L12.4258891,7.33713582 C12.1852733,7.20164183 11.880376,7.28685994 11.744882,7.5274758 C11.7027105,7.60236576 11.6805556,7.68686202 11.6805556,7.77280936 L11.6805556,14.2271906 C11.6805556,14.503333 11.9044132,14.7271906 12.1805556,14.7271906 C12.2665029,14.7271906 12.3509992,14.7050357 12.4258891,14.6628642 Z" id="Shape"></path>
                <path d="M14.5,0 C11.4198514,0 6.8675331,0.478636439 0.843045177,1.43590932 L0.843049349,1.43593557 C0.357451145,1.51309565 8.39268393e-13,1.93182908 8.39328607e-13,2.42351932 L-3.44646159e-05,19.5768438 C-3.44646159e-05,20.0684011 0.357207672,20.4870721 0.842641347,20.5644202 C6.84906783,21.5214734 11.4015207,22 14.5,22 C17.5984787,22 22.1509305,21.5214736 28.1573553,20.5644207 L28.157355,20.5644187 C28.6427709,20.4870734 29,20.0684177 29,19.5768783 L28.9999836,3.27879702 C28.9999836,2.29246952 28.2809133,1.45341007 27.3062153,1.30239455 C21.7021936,0.434131516 17.4334551,0 14.5,0 Z M26.5833333,18.5095429 C22.5613556,19.2619429 18.5055444,19.6428571 14.5,19.6428571 C10.4944556,19.6428571 6.43864444,19.2619429 2.41666667,18.5095429 L2.41666667,3.49045714 C6.43864444,2.73805714 10.4941333,2.35714286 14.4996778,2.35714286 L14.5,2.35714286 C18.5055444,2.35714286 22.5613556,2.73805714 26.5833333,3.49045714 L26.5833333,18.5095429 Z" id="Shape"></path>
            </g>
        </g>
    </g>
</svg>